<?xml version="1.0" standalone="no"?>
<!DOCTYPE svg PUBLIC "-//W3C//DTD SVG 20010904//EN"
 "http://www.w3.org/TR/2001/REC-SVG-20010904/DTD/svg10.dtd">
<svg version="1.0" xmlns="http://www.w3.org/2000/svg"
 width="512.000000pt" height="512.000000pt" viewBox="0 0 512.000000 512.000000"
 preserveAspectRatio="xMidYMid meet">

<g transform="translate(0.000000,512.000000) scale(0.100000,-0.100000)"
fill="#000000" stroke="none">
<path d="M743 3137 c-237 -238 -439 -448 -449 -467 -28 -52 -26 -172 4 -227
33 -64 1160 -1182 1220 -1211 38 -19 60 -22 117 -19 113 5 186 54 233 155 20
44 23 65 20 115 -2 34 -12 80 -22 102 -13 28 -161 182 -490 507 l-471 467 350
350 c218 219 346 354 340 360 -10 9 -391 281 -411 293 -5 4 -204 -188 -441
-425z"/>
<path d="M2192 1973 c-73 -423 -132 -788 -132 -813 1 -55 30 -124 73 -168 123
-129 345 -98 420 60 21 43 46 171 132 678 58 344 108 637 111 652 5 25 -9 36
-220 187 -124 89 -231 163 -238 166 -10 4 -44 -173 -146 -762z"/>
<path d="M3403 1748 c-72 -73 -139 -149 -149 -168 -27 -52 -26 -172 3 -225 64
-121 198 -173 329 -128 41 14 76 43 217 182 l167 166 -211 150 c-116 83 -214
151 -217 153 -4 1 -66 -58 -139 -130z"/>
</g>
</svg>
